<svg width="20" height="20" viewBox="0 0 20 20" fill="none" xmlns="http://www.w3.org/2000/svg">
<g clip-path="url(#clip0_1520_1503)">
<path d="M14.5396 6.49238C14.5396 5.21934 14.0338 3.99844 13.1337 3.09827C12.2335 2.1981 11.0126 1.69238 9.73955 1.69238C8.46651 1.69238 7.24561 2.1981 6.34544 3.09827C5.44526 3.99844 4.93955 5.21934 4.93955 6.49238C4.93955 12.0924 2.53955 13.6924 2.53955 13.6924H16.9395C16.9395 13.6924 14.5396 12.0924 14.5396 6.49238Z" stroke="#303030" stroke-width="1.6" stroke-linecap="round" stroke-linejoin="round"/>
<path d="M11.1235 16.8921C10.9828 17.1346 10.7809 17.3358 10.538 17.4757C10.2952 17.6156 10.0198 17.6893 9.73947 17.6893C9.45917 17.6893 9.18378 17.6156 8.94089 17.4757C8.69799 17.3358 8.49612 17.1346 8.35547 16.8921" stroke="#303030" stroke-width="1.6" stroke-linecap="round" stroke-linejoin="round"/>
</g>
<defs>
<clipPath id="clip0_1520_1503">
<rect width="19.2" height="19.2" fill="white" transform="translate(0.139648 0.0922852)"/>
</clipPath>
</defs>
</svg>
