<svg width="24" height="24" viewBox="0 0 24 24" fill="none" xmlns="http://www.w3.org/2000/svg">
<path d="M20.2495 12.1416H11.8589V3.75096C11.8589 3.64783 11.7745 3.56346 11.6714 3.56346H11.062C9.83085 3.56144 8.61143 3.80288 7.47392 4.2739C6.33641 4.74491 5.30325 5.4362 4.4339 6.30799C3.57775 7.16149 2.89558 8.1732 2.42531 9.28689C1.93594 10.442 1.68483 11.684 1.68703 12.9385C1.68501 14.1696 1.92645 15.389 2.39747 16.5266C2.86848 17.6641 3.55977 18.6972 4.43156 19.5666C5.29171 20.4267 6.29484 21.1041 7.41046 21.5752C8.56555 22.0645 9.80755 22.3156 11.062 22.3135C12.2932 22.3155 13.5126 22.074 14.6501 21.603C15.7876 21.132 16.8208 20.4407 17.6902 19.5689C18.5503 18.7088 19.2277 17.7056 19.6987 16.59C20.1881 15.4349 20.4392 14.1929 20.437 12.9385V12.3291C20.437 12.226 20.3527 12.1416 20.2495 12.1416ZM16.5394 18.465C15.8136 19.1851 14.9529 19.7549 14.0066 20.1418C13.0603 20.5287 12.0469 20.7251 11.0245 20.7197C8.95968 20.7103 7.01906 19.9017 5.5589 18.4416C4.08937 16.972 3.28078 15.0174 3.28078 12.9385C3.28078 10.8595 4.08937 8.90486 5.5589 7.43533C6.83859 6.15564 8.48624 5.37517 10.2652 5.19705V13.7353H18.8034C18.623 15.5236 17.8355 17.1806 16.5394 18.465ZM22.312 10.8385L22.2511 10.1775C22.0519 8.01892 21.0933 5.98221 19.5511 4.44471C18.0078 2.90439 15.9753 1.95111 13.8042 1.74939L13.1409 1.68846C13.0308 1.67908 12.937 1.76346 12.937 1.87361V10.876C12.937 10.9791 13.0214 11.0635 13.1245 11.0635L22.1245 11.04C22.2347 11.04 22.3214 10.9463 22.312 10.8385ZM14.5261 9.47439V3.46033C16.0025 3.76935 17.3574 4.50053 18.4261 5.56502C19.4972 6.63377 20.2308 7.99314 20.5355 9.45799L14.5261 9.47439Z" fill="white"/>
</svg>
