<svg width="16" height="16" viewBox="0 0 16 16" fill="none" xmlns="http://www.w3.org/2000/svg">
<path d="M13.7187 4.20942L11.0379 1.30468C10.9488 1.20809 10.8429 1.13146 10.7264 1.07918C10.6099 1.02691 10.4851 1 10.359 1C10.2329 1 10.1081 1.02691 9.99157 1.07918C9.87508 1.13146 9.76924 1.20809 9.68009 1.30468L2.28141 9.32017C2.19187 9.41639 2.12089 9.53093 2.07258 9.65713C2.02427 9.78333 1.9996 9.91868 2 10.0553V12.96C2 13.2358 2.10115 13.5004 2.28119 13.6954C2.46122 13.8904 2.70541 14 2.96002 14H5.64145C5.76756 14.0004 5.8925 13.9737 6.009 13.9214C6.1255 13.869 6.23123 13.7921 6.32006 13.6952L13.7187 5.68031C13.8079 5.58374 13.8786 5.46909 13.9269 5.3429C13.9752 5.21671 14 5.08146 14 4.94487C14 4.80828 13.9752 4.67303 13.9269 4.54684C13.8786 4.42065 13.8079 4.30599 13.7187 4.20942ZM5.64145 12.96H2.96002V10.0553L8.24008 4.33552L10.9215 7.24025L5.64145 12.96ZM11.6001 6.50448L8.91869 3.60039L10.3587 2.04045L13.0401 4.94454L11.6001 6.50448Z" fill="black"/>
</svg>
