<svg width="20" height="20" viewBox="0 0 20 20" fill="none" xmlns="http://www.w3.org/2000/svg">
<path d="M18.125 4.375H15V3.28125C15 3.19531 14.9297 3.125 14.8438 3.125H13.75C13.6641 3.125 13.5938 3.19531 13.5938 3.28125V4.375H10.7031V3.28125C10.7031 3.19531 10.6328 3.125 10.5469 3.125H9.45312C9.36719 3.125 9.29688 3.19531 9.29688 3.28125V4.375H6.40625V3.28125C6.40625 3.19531 6.33594 3.125 6.25 3.125H5.15625C5.07031 3.125 5 3.19531 5 3.28125V4.375H1.875C1.5293 4.375 1.25 4.6543 1.25 5V16.25C1.25 16.5957 1.5293 16.875 1.875 16.875H18.125C18.4707 16.875 18.75 16.5957 18.75 16.25V5C18.75 4.6543 18.4707 4.375 18.125 4.375ZM17.3438 15.4688H2.65625V5.78125H5V6.875C5 6.96094 5.07031 7.03125 5.15625 7.03125H6.25C6.33594 7.03125 6.40625 6.96094 6.40625 6.875V5.78125H9.29688V6.875C9.29688 6.96094 9.36719 7.03125 9.45312 7.03125H10.5469C10.6328 7.03125 10.7031 6.96094 10.7031 6.875V5.78125H13.5938V6.875C13.5938 6.96094 13.6641 7.03125 13.75 7.03125H14.8438C14.9297 7.03125 15 6.96094 15 6.875V5.78125H17.3438V15.4688ZM8.125 9.6875H4.53125C4.44531 9.6875 4.375 9.75781 4.375 9.84375V10.7812C4.375 10.8672 4.44531 10.9375 4.53125 10.9375H8.125C8.21094 10.9375 8.28125 10.8672 8.28125 10.7812V9.84375C8.28125 9.75781 8.21094 9.6875 8.125 9.6875ZM8.125 12.3438H4.53125C4.44531 12.3438 4.375 12.4141 4.375 12.5V13.4375C4.375 13.5234 4.44531 13.5938 4.53125 13.5938H8.125C8.21094 13.5938 8.28125 13.5234 8.28125 13.4375V12.5C8.28125 12.4141 8.21094 12.3438 8.125 12.3438ZM14.1445 8.87891L12.1211 11.6855L11.0898 10.2578C11.0312 10.1758 10.9375 10.1289 10.8379 10.1289H9.76562C9.63867 10.1289 9.56445 10.2734 9.63867 10.377L11.8672 13.4668C11.896 13.5067 11.9338 13.5392 11.9776 13.5617C12.0214 13.5841 12.0699 13.5958 12.1191 13.5958C12.1684 13.5958 12.2169 13.5841 12.2607 13.5617C12.3045 13.5392 12.3423 13.5067 12.3711 13.4668L15.5938 9C15.668 8.89648 15.5938 8.75195 15.4668 8.75195H14.3945C14.2969 8.75 14.2031 8.79883 14.1445 8.87891Z" fill="white"/>
</svg>
