<svg width="20" height="20" viewBox="0 0 20 20" fill="none" xmlns="http://www.w3.org/2000/svg">
<g clip-path="url(#clip0_1520_1510)">
<path d="M9.69956 12.4089C11.025 12.4089 12.0996 11.3344 12.0996 10.0089C12.0996 8.6834 11.025 7.60889 9.69956 7.60889C8.37408 7.60889 7.29956 8.6834 7.29956 10.0089C7.29956 11.3344 8.37408 12.4089 9.69956 12.4089Z" stroke="#303030" stroke-width="1.6" stroke-linecap="round" stroke-linejoin="round"/>
<path d="M15.6194 12.4085C15.5129 12.6498 15.4812 12.9175 15.5282 13.177C15.5753 13.4365 15.699 13.676 15.8834 13.8645L15.9314 13.9125C16.0802 14.0611 16.1982 14.2376 16.2787 14.4318C16.3592 14.626 16.4007 14.8342 16.4007 15.0445C16.4007 15.2548 16.3592 15.463 16.2787 15.6572C16.1982 15.8514 16.0802 16.0279 15.9314 16.1765C15.7828 16.3253 15.6064 16.4433 15.4121 16.5238C15.2179 16.6043 15.0097 16.6458 14.7994 16.6458C14.5891 16.6458 14.3809 16.6043 14.1867 16.5238C13.9925 16.4433 13.816 16.3253 13.6674 16.1765L13.6194 16.1285C13.4309 15.9441 13.1914 15.8203 12.9319 15.7733C12.6724 15.7262 12.4047 15.758 12.1634 15.8645C11.9268 15.9659 11.725 16.1343 11.5829 16.3489C11.4407 16.5636 11.3644 16.8151 11.3634 17.0725V17.2085C11.3634 17.6328 11.1948 18.0398 10.8948 18.3399C10.5947 18.6399 10.1878 18.8085 9.76341 18.8085C9.33907 18.8085 8.9321 18.6399 8.63204 18.3399C8.33199 18.0398 8.16341 17.6328 8.16341 17.2085V17.1365C8.15722 16.8717 8.07151 16.6149 7.91742 16.3995C7.76334 16.184 7.548 16.0199 7.29941 15.9285C7.05812 15.822 6.79046 15.7902 6.53094 15.8373C6.27143 15.8843 6.03196 16.0081 5.84341 16.1925L5.79541 16.2405C5.64682 16.3893 5.47036 16.5073 5.27612 16.5878C5.08188 16.6683 4.87368 16.7098 4.66341 16.7098C4.45315 16.7098 4.24495 16.6683 4.05071 16.5878C3.85647 16.5073 3.68001 16.3893 3.53141 16.2405C3.38265 16.0919 3.26464 15.9154 3.18412 15.7212C3.1036 15.527 3.06216 15.3188 3.06216 15.1085C3.06216 14.8982 3.1036 14.69 3.18412 14.4958C3.26464 14.3016 3.38265 14.1251 3.53141 13.9765L3.57941 13.9285C3.76384 13.74 3.88756 13.5005 3.93462 13.241C3.98167 12.9815 3.94991 12.7138 3.84341 12.4725C3.742 12.2359 3.57362 12.0341 3.35899 11.8919C3.14435 11.7498 2.89284 11.6735 2.63541 11.6725H2.49941C2.07507 11.6725 1.6681 11.5039 1.36804 11.2039C1.06799 10.9038 0.899414 10.4968 0.899414 10.0725C0.899414 9.64815 1.06799 9.24118 1.36804 8.94113C1.6681 8.64107 2.07507 8.4725 2.49941 8.4725H2.57141C2.83621 8.4663 3.09302 8.38059 3.30845 8.2265C3.52389 8.07242 3.68799 7.85708 3.77941 7.6085C3.88591 7.3672 3.91767 7.09954 3.87062 6.84003C3.82356 6.58051 3.69984 6.34104 3.51541 6.1525L3.46741 6.1045C3.31865 5.9559 3.20064 5.77944 3.12012 5.5852C3.0396 5.39096 2.99816 5.18276 2.99816 4.9725C2.99816 4.76223 3.0396 4.55403 3.12012 4.35979C3.20064 4.16555 3.31865 3.98909 3.46741 3.8405C3.61601 3.69173 3.79247 3.57372 3.98671 3.4932C4.18095 3.41268 4.38915 3.37124 4.59941 3.37124C4.80968 3.37124 5.01788 3.41268 5.21212 3.4932C5.40636 3.57372 5.58282 3.69173 5.73141 3.8405L5.77941 3.8885C5.96796 4.07293 6.20743 4.19664 6.46694 4.2437C6.72646 4.29075 6.99412 4.25899 7.23541 4.1525H7.29941C7.53603 4.05109 7.73783 3.8827 7.87997 3.66807C8.02211 3.45344 8.09839 3.20193 8.09941 2.9445V2.8085C8.09941 2.38415 8.26799 1.97718 8.56804 1.67713C8.8681 1.37707 9.27507 1.2085 9.69941 1.2085C10.1238 1.2085 10.5307 1.37707 10.8308 1.67713C11.1308 1.97718 11.2994 2.38415 11.2994 2.8085V2.8805C11.3004 3.13793 11.3767 3.38944 11.5189 3.60407C11.661 3.8187 11.8628 3.98709 12.0994 4.0885C12.3407 4.19499 12.6084 4.22675 12.8679 4.1797C13.1274 4.13264 13.3669 4.00893 13.5554 3.8245L13.6034 3.7765C13.752 3.62773 13.9285 3.50972 14.1227 3.4292C14.3169 3.34868 14.5251 3.30724 14.7354 3.30724C14.9457 3.30724 15.1539 3.34868 15.3481 3.4292C15.5424 3.50972 15.7188 3.62773 15.8674 3.7765C16.0162 3.92509 16.1342 4.10155 16.2147 4.29579C16.2952 4.49003 16.3367 4.69823 16.3367 4.9085C16.3367 5.11876 16.2952 5.32696 16.2147 5.5212C16.1342 5.71544 16.0162 5.8919 15.8674 6.0405L15.8194 6.0885C15.635 6.27704 15.5113 6.51651 15.4642 6.77603C15.4172 7.03554 15.4489 7.3032 15.5554 7.5445V7.6085C15.6568 7.84511 15.8252 8.04691 16.0398 8.18905C16.2545 8.33119 16.506 8.40747 16.7634 8.4085H16.8994C17.3238 8.4085 17.7307 8.57707 18.0308 8.87713C18.3308 9.17718 18.4994 9.58415 18.4994 10.0085C18.4994 10.4328 18.3308 10.8398 18.0308 11.1399C17.7307 11.4399 17.3238 11.6085 16.8994 11.6085H16.8274C16.57 11.6095 16.3185 11.6858 16.1038 11.8279C15.8892 11.9701 15.7208 12.1719 15.6194 12.4085Z" stroke="#303030" stroke-width="1.6" stroke-linecap="round" stroke-linejoin="round"/>
</g>
<defs>
<clipPath id="clip0_1520_1510">
<rect width="19.2" height="19.2" fill="white" transform="translate(0.0996094 0.408691)"/>
</clipPath>
</defs>
</svg>
